<svg id="Capa_1" enable-background="new 0 0 512 512" height="512" viewBox="0 0 512 512" width="512" xmlns="http://www.w3.org/2000/svg"><g><g><path d="m91.336 452h329.327c55.839-46.96 91.337-117.329 91.337-196 0-141.385-114.615-256-256-256s-256 114.615-256 256c0 78.671 35.498 149.04 91.336 196z" fill="#85faf4"/></g><g><g><path d="m202.713 272h-29.635c-11.046 0-20-8.954-20-20v-126.237c0-8.913-6.66-16.654-15.539-17.429-8.7-.759-16.448 5.103-18.204 13.493l-22.698 108.469c-13.392 63.997 35.451 124.119 100.834 124.119h5.242z" fill="#389f4d"/></g><g><path d="m456 392c0-66.274-53.726-120-120-120h-140v120z" fill="#85d249"/></g><g><path d="m512 452c0-33.137-26.863-60-60-60h-392c-33.137 0-60 26.863-60 60 0 33.137 26.863 60 60 60h392c33.137 0 60-26.863 60-60z" fill="#60b550"/></g><g><path d="m110 452c0-33.137 26.863-60 60-60h-110c-33.137 0-60 26.863-60 60 0 33.137 26.863 60 60 60h110c-33.137 0-60-26.863-60-60z" fill="#389f4d"/></g><g><path d="m331 272h-135v120h61.802c43.437-22.462 73.198-67.819 73.198-120z" fill="#60b550"/></g><g><path d="m196 87.547v164.453c0 11.046-8.954 20-20 20h-60c-33.137 0-60 26.863-60 60 0 33.137 26.863 60 60 60h80c66.274 0 120-53.726 120-120v-184.453z" fill="#85d249"/></g><g><path d="m196 87.547v164.453c0 11.046-8.954 20-20 20h-60c-33.137 0-60 26.863-60 60 0 33.137 26.863 60 60 60h60c-1.381 0-2.751-.047-4.108-.138-38.24-2.586-35.801-59.862 2.526-59.862h1.582c44.183 0 80-35.817 80-80v-40.277c0-12.772 8.083-24.154 20.157-28.319 13.464-4.645 27.209-13.662 39.843-26.3v-69.557z" fill="#60b550"/></g><g><path d="m205.333 124.583c-3.215 0-6.338.39-9.333 1.106v77.788c2.996.716 6.118 1.106 9.333 1.106 22.091 0 40-17.909 40-40s-17.908-40-40-40z" fill="#389f4d"/></g><g><path d="m308.808 313.006c-7.335-8.514-18.188-13.912-30.308-13.912-22.091 0-40 17.909-40 40 0 15.053 8.319 28.157 20.606 34.984 22.741-14.09 40.426-35.56 49.702-61.072z" fill="#60b550"/></g><g><path d="m386.436 283.091c-16.194 5.117-27.936 20.258-27.936 38.144 0 22.091 17.909 40 40 40 19.61 0 35.912-14.115 39.33-32.737-12.309-19.696-30.169-35.561-51.394-45.407z" fill="#60b550"/></g><g><circle cx="409.333" cy="452" fill="#389f4d" r="40"/></g><g><path d="m256 443.902c-22.091 0-40 17.909-40 40 0 10.953 4.406 20.874 11.538 28.098h56.924c7.132-7.224 11.538-17.145 11.538-28.098 0-22.091-17.909-40-40-40z" fill="#389f4d"/></g><g><circle cx="265.333" cy="244.371" fill="#60b550" r="20"/></g><g><path d="m245.333 244.371c0 7.423 4.054 13.887 10.059 17.338.386-3.185.607-6.42.607-9.709v-25.312c-6.34 3.355-10.666 10.01-10.666 17.683z" fill="#389f4d"/></g><g><circle cx="114" cy="317.268" fill="#389f4d" r="20"/></g><g><circle cx="331" cy="364.736" fill="#60b550" r="20"/></g><g><circle cx="166" cy="443.902" fill="#389f4d" r="20"/></g><path d="m360.9 207.336c-.003 0-.007 0-.01 0l-20.38.027c-2.916-1.402-4.062-3.976-6.013-9.62-2.258-6.535-5.351-15.484-16.247-19.301-10.897-3.819-18.896 1.246-24.739 4.943-5.597 3.543-8.062 4.757-11.76 3.463-3.697-1.295-4.863-3.783-7.026-10.043-2.258-6.534-5.35-15.483-16.245-19.3-3.909-1.368-8.188.69-9.558 4.599s.689 8.188 4.599 9.558c3.697 1.295 4.863 3.783 7.026 10.043 2.258 6.534 5.35 15.483 16.245 19.3 10.898 3.819 18.897-1.246 24.74-4.943 5.596-3.542 8.058-4.759 11.759-3.463 3.699 1.296 4.865 3.783 7.029 10.044 1.864 5.395 4.31 12.428 11.233 16.867l.022 17.219c.005 4.139 3.362 7.49 7.5 7.49h.01c4.142-.005 7.495-3.367 7.49-7.51l-.019-14.354 14.354-.02c4.143-.006 7.496-3.368 7.49-7.51-.005-4.137-3.362-7.489-7.5-7.489z" fill="#ff4155"/><g><path d="m256 172c36 0 80-51.296 80-84.453s-34.061-55.547-80-55.547-80 22.389-80 55.547 44 84.453 80 84.453z" fill="#a3ea6e"/></g><g><path d="m212 87.547c0-28.653 25.445-49.251 62-54.322-5.747-.798-11.759-1.225-18-1.225-45.939 0-80 22.389-80 55.547 0 33.157 44 84.453 80 84.453 5.863 0 11.938-1.368 18-3.789-31.164-12.444-62-52.906-62-80.664z" fill="#85d249"/></g><g><circle cx="208.5" cy="75.767" fill="#543438" r="15"/></g><g><circle cx="216" cy="68.267" fill="#fff" r="7.5"/></g><g><circle cx="303.5" cy="75.767" fill="#543438" r="15"/></g><g><circle cx="311" cy="68.267" fill="#fff" r="7.5"/></g></g></g></svg>